<svg width="639" height="135" viewBox="0 0 639 135" fill="none" xmlns="http://www.w3.org/2000/svg">
<path d="M291 0C301 6.75 331 20.25 351 20.25V47.25C351 74.25 321 114.75 291 135C261 114.75 231 74.25 231 47.25V20.25C251 20.25 281 6.75 291 0Z" fill="black"/>
<path d="M12.2109 92.8008H52.6406V102H0.902344V16.6875H12.2109V92.8008ZM60.9023 69.7148C60.9023 63.5039 62.1133 57.918 64.5352 52.957C66.9961 47.9961 70.3945 44.168 74.7305 41.4727C79.1055 38.7773 84.0859 37.4297 89.6719 37.4297C98.3047 37.4297 105.277 40.418 110.59 46.3945C115.941 52.3711 118.617 60.3203 118.617 70.2422V71.0039C118.617 77.1758 117.426 82.7227 115.043 87.6445C112.699 92.5273 109.32 96.3359 104.906 99.0703C100.531 101.805 95.4922 103.172 89.7891 103.172C81.1953 103.172 74.2227 100.184 68.8711 94.207C63.5586 88.2305 60.9023 80.3203 60.9023 70.4766V69.7148ZM71.8008 71.0039C71.8008 78.0352 73.4219 83.6797 76.6641 87.9375C79.9453 92.1953 84.3203 94.3242 89.7891 94.3242C95.2969 94.3242 99.6719 92.1758 102.914 87.8789C106.156 83.543 107.777 77.4883 107.777 69.7148C107.777 62.7617 106.117 57.1367 102.797 52.8398C99.5156 48.5039 95.1406 46.3359 89.6719 46.3359C84.3203 46.3359 80.0039 48.4648 76.7227 52.7227C73.4414 56.9805 71.8008 63.0742 71.8008 71.0039ZM129.34 69.7148C129.34 63.5039 130.551 57.918 132.973 52.957C135.434 47.9961 138.832 44.168 143.168 41.4727C147.543 38.7773 152.523 37.4297 158.109 37.4297C166.742 37.4297 173.715 40.418 179.027 46.3945C184.379 52.3711 187.055 60.3203 187.055 70.2422V71.0039C187.055 77.1758 185.863 82.7227 183.48 87.6445C181.137 92.5273 177.758 96.3359 173.344 99.0703C168.969 101.805 163.93 103.172 158.227 103.172C149.633 103.172 142.66 100.184 137.309 94.207C131.996 88.2305 129.34 80.3203 129.34 70.4766V69.7148ZM140.238 71.0039C140.238 78.0352 141.859 83.6797 145.102 87.9375C148.383 92.1953 152.758 94.3242 158.227 94.3242C163.734 94.3242 168.109 92.1758 171.352 87.8789C174.594 83.543 176.215 77.4883 176.215 69.7148C176.215 62.7617 174.555 57.1367 171.234 52.8398C167.953 48.5039 163.578 46.3359 158.109 46.3359C152.758 46.3359 148.441 48.4648 145.16 52.7227C141.879 56.9805 140.238 63.0742 140.238 71.0039ZM215.355 23.25V38.6016H227.191V46.9805H215.355V86.2969C215.355 88.8359 215.883 90.75 216.938 92.0391C217.992 93.2891 219.789 93.9141 222.328 93.9141C223.578 93.9141 225.297 93.6797 227.484 93.2109V102C224.633 102.781 221.859 103.172 219.164 103.172C214.32 103.172 210.668 101.707 208.207 98.7773C205.746 95.8477 204.516 91.6875 204.516 86.2969V46.9805H192.973V38.6016H204.516V23.25H215.355ZM371.879 102H361.039V38.6016H371.879V102ZM360.16 21.7852C360.16 20.0273 360.688 18.543 361.742 17.332C362.836 16.1211 364.438 15.5156 366.547 15.5156C368.656 15.5156 370.258 16.1211 371.352 17.332C372.445 18.543 372.992 20.0273 372.992 21.7852C372.992 23.543 372.445 25.0078 371.352 26.1797C370.258 27.3516 368.656 27.9375 366.547 27.9375C364.438 27.9375 362.836 27.3516 361.742 26.1797C360.688 25.0078 360.16 23.543 360.16 21.7852ZM410.199 87.293L425.902 38.6016H436.977L414.242 102H405.98L383.012 38.6016H394.086L410.199 87.293ZM459.184 102H448.344V38.6016H459.184V102ZM447.465 21.7852C447.465 20.0273 447.992 18.543 449.047 17.332C450.141 16.1211 451.742 15.5156 453.852 15.5156C455.961 15.5156 457.562 16.1211 458.656 17.332C459.75 18.543 460.297 20.0273 460.297 21.7852C460.297 23.543 459.75 25.0078 458.656 26.1797C457.562 27.3516 455.961 27.9375 453.852 27.9375C451.742 27.9375 450.141 27.3516 449.047 26.1797C447.992 25.0078 447.465 23.543 447.465 21.7852ZM473.949 69.7734C473.949 60.0469 476.254 52.2344 480.863 46.3359C485.473 40.3984 491.508 37.4297 498.969 37.4297C506.391 37.4297 512.27 39.9687 516.605 45.0469V12H527.445V102H517.484L516.957 95.2031C512.621 100.516 506.586 103.172 498.852 103.172C491.508 103.172 485.512 100.164 480.863 94.1484C476.254 88.1328 473.949 80.2812 473.949 70.5938V69.7734ZM484.789 71.0039C484.789 78.1914 486.273 83.8164 489.242 87.8789C492.211 91.9414 496.312 93.9727 501.547 93.9727C508.422 93.9727 513.441 90.8867 516.605 84.7148V55.5938C513.363 49.6172 508.383 46.6289 501.664 46.6289C496.352 46.6289 492.211 48.6797 489.242 52.7812C486.273 56.8828 484.789 62.957 484.789 71.0039ZM570.629 103.172C562.035 103.172 555.043 100.359 549.652 94.7344C544.262 89.0703 541.566 81.5117 541.566 72.0586V70.0664C541.566 63.7773 542.758 58.1719 545.141 53.25C547.562 48.2891 550.922 44.4219 555.219 41.6484C559.555 38.8359 564.242 37.4297 569.281 37.4297C577.523 37.4297 583.93 40.1445 588.5 45.5742C593.07 51.0039 595.355 58.7773 595.355 68.8945V73.4062H552.406C552.562 79.6562 554.379 84.7148 557.855 88.582C561.371 92.4102 565.824 94.3242 571.215 94.3242C575.043 94.3242 578.285 93.543 580.941 91.9805C583.598 90.418 585.922 88.3477 587.914 85.7695L594.535 90.9258C589.223 99.0898 581.254 103.172 570.629 103.172ZM569.281 46.3359C564.906 46.3359 561.234 47.9375 558.266 51.1406C555.297 54.3047 553.461 58.7578 552.758 64.5H584.516V63.6797C584.203 58.1719 582.719 53.9141 580.062 50.9062C577.406 47.8594 573.812 46.3359 569.281 46.3359ZM638.598 48.3281C636.957 48.0547 635.18 47.918 633.266 47.918C626.156 47.918 621.332 50.9453 618.793 57V102H607.953V38.6016H618.5L618.676 45.9258C622.23 40.2617 627.27 37.4297 633.793 37.4297C635.902 37.4297 637.504 37.7031 638.598 38.25V48.3281Z" fill="black"/>
<path d="M269.721 102V30.9062H289.789C295.974 30.9062 301.443 32.2734 306.195 35.0078C310.948 37.7422 314.61 41.6322 317.182 46.6777C319.786 51.7233 321.104 57.5176 321.137 64.0605V68.6016C321.137 75.3073 319.835 81.1829 317.23 86.2285C314.659 91.2741 310.964 95.1478 306.146 97.8496C301.361 100.551 295.779 101.935 289.398 102H269.721ZM279.096 38.6211V94.334H288.959C296.186 94.334 301.801 92.0879 305.805 87.5957C309.841 83.1035 311.859 76.707 311.859 68.4062V64.2559C311.859 56.1829 309.955 49.9167 306.146 45.457C302.37 40.9648 296.999 38.6862 290.033 38.6211H279.096Z" fill="white"/>
</svg>
